<svg xmlns="http://www.w3.org/2000/svg" width="1200" height="800" viewBox="0 0 1200 800" role="img" aria-labelledby="title desc">
  <title id="title">Jenkins automation</title>
  <desc id="desc">Jenkins controller coordinating agents, plugins, and pipeline stages.</desc>
  <rect width="1200" height="800" rx="44" fill="#f6f7fb"/>
  <rect x="110" y="120" width="980" height="560" rx="34" fill="#fff" stroke="#dbe2ee" stroke-width="3"/>
  <circle cx="600" cy="306" r="112" fill="#14213d"/>
  <text x="600" y="294" text-anchor="middle" font-family="Inter,Arial,sans-serif" font-weight="900" font-size="42" fill="#fff">Jenkins</text>
  <text x="600" y="340" text-anchor="middle" font-family="Inter,Arial,sans-serif" font-weight="800" font-size="24" fill="#dce6f6">Automation Server</text>
  <g fill="none" stroke="#9aa7bd" stroke-width="6" stroke-linecap="round">
    <path d="M500 398 L342 520"/>
    <path d="M600 420 V555"/>
    <path d="M700 398 L858 520"/>
  </g>
  <g font-family="Inter,Arial,sans-serif" font-weight="850" text-anchor="middle">
    <rect x="220" y="510" width="244" height="102" rx="20" fill="#007f7a"/>
    <text x="342" y="570" font-size="28" fill="#fff">Agent</text>
    <rect x="478" y="555" width="244" height="102" rx="20" fill="#f08a24"/>
    <text x="600" y="615" font-size="28" fill="#fff">Jenkinsfile</text>
    <rect x="736" y="510" width="244" height="102" rx="20" fill="#6a4c93"/>
    <text x="858" y="570" font-size="28" fill="#fff">Plugins</text>
  </g>
  <rect x="250" y="180" width="180" height="78" rx="16" fill="#eef3f9"/>
  <text x="340" y="228" text-anchor="middle" font-family="Inter,Arial,sans-serif" font-weight="900" font-size="24" fill="#14213d">Self-hosted</text>
  <rect x="770" y="180" width="180" height="78" rx="16" fill="#eef3f9"/>
  <text x="860" y="228" text-anchor="middle" font-family="Inter,Arial,sans-serif" font-weight="900" font-size="24" fill="#14213d">Flexible</text>
</svg>
