<svg xmlns="http://www.w3.org/2000/svg" width="1200" height="800" viewBox="0 0 1200 800" role="img" aria-labelledby="title desc">
  <title id="title">ML and data system architecture</title>
  <desc id="desc">Data sources, storage, processing, training, deployment, and monitoring connected as a high-level architecture.</desc>
  <rect width="1200" height="800" rx="44" fill="#f7f4ec"/>
  <rect x="86" y="82" width="1028" height="636" rx="34" fill="#fff" stroke="#d9dfeb" stroke-width="3"/>
  <g fill="none" stroke="#9aa7bd" stroke-width="5" stroke-linecap="round">
    <path d="M235 250 H465"/>
    <path d="M465 250 H735"/>
    <path d="M735 250 H965"/>
    <path d="M600 344 V526"/>
    <path d="M348 526 H852"/>
  </g>
  <g font-family="Inter,Arial,sans-serif" font-weight="800" text-anchor="middle">
    <rect x="115" y="176" width="220" height="148" rx="22" fill="#14213d"/>
    <text x="225" y="246" font-size="30" fill="#fff">Data Sources</text>
    <text x="225" y="282" font-size="19" fill="#c7d1e2">apps · logs · files</text>
    <rect x="425" y="176" width="220" height="148" rx="22" fill="#007f7a"/>
    <text x="535" y="246" font-size="30" fill="#fff">Pipelines</text>
    <text x="535" y="282" font-size="19" fill="#d6fffb">batch · stream</text>
    <rect x="735" y="176" width="220" height="148" rx="22" fill="#6a4c93"/>
    <text x="845" y="246" font-size="30" fill="#fff">Model Layer</text>
    <text x="845" y="282" font-size="19" fill="#eadfff">train · evaluate</text>
    <rect x="246" y="502" width="230" height="132" rx="22" fill="#f08a24"/>
    <text x="361" y="562" font-size="29" fill="#fff">Serving</text>
    <text x="361" y="596" font-size="19" fill="#fff3e5">API · batch score</text>
    <rect x="724" y="502" width="230" height="132" rx="22" fill="#2f6fdd"/>
    <text x="839" y="562" font-size="29" fill="#fff">Monitoring</text>
    <text x="839" y="596" font-size="19" fill="#e6efff">metrics · drift</text>
  </g>
  <circle cx="600" cy="404" r="78" fill="#fff" stroke="#14213d" stroke-width="5"/>
  <text x="600" y="394" text-anchor="middle" font-family="Inter,Arial,sans-serif" font-weight="900" font-size="28" fill="#14213d">High-Level</text>
  <text x="600" y="428" text-anchor="middle" font-family="Inter,Arial,sans-serif" font-weight="900" font-size="28" fill="#14213d">Design</text>
</svg>
