<svg xmlns="http://www.w3.org/2000/svg" width="1200" height="800" viewBox="0 0 1200 800" role="img" aria-labelledby="title desc">
  <title id="title">Reliable release practices</title>
  <desc id="desc">Dashboard-style view of CI/CD best practices: tests, secrets, cache, logs, and monitoring.</desc>
  <rect width="1200" height="800" rx="44" fill="#edf7f1"/>
  <rect x="104" y="102" width="992" height="596" rx="34" fill="#fff" stroke="#d6e7dc" stroke-width="3"/>
  <g font-family="Inter,Arial,sans-serif" font-weight="850">
    <text x="600" y="184" text-anchor="middle" font-size="46" fill="#14213d">Reliable Delivery Checklist</text>
    <g transform="translate(180 255)">
      <rect width="270" height="128" rx="22" fill="#007f7a"/>
      <circle cx="56" cy="64" r="24" fill="#fff"/>
      <path d="M45 65 L54 74 L71 52" fill="none" stroke="#007f7a" stroke-width="7" stroke-linecap="round" stroke-linejoin="round"/>
      <text x="170" y="74" text-anchor="middle" font-size="27" fill="#fff">Fast tests</text>
    </g>
    <g transform="translate(475 255)">
      <rect width="270" height="128" rx="22" fill="#14213d"/>
      <circle cx="56" cy="64" r="24" fill="#fff"/>
      <path d="M45 65 L54 74 L71 52" fill="none" stroke="#14213d" stroke-width="7" stroke-linecap="round" stroke-linejoin="round"/>
      <text x="172" y="74" text-anchor="middle" font-size="27" fill="#fff">Safe secrets</text>
    </g>
    <g transform="translate(770 255)">
      <rect width="270" height="128" rx="22" fill="#f08a24"/>
      <circle cx="56" cy="64" r="24" fill="#fff"/>
      <path d="M45 65 L54 74 L71 52" fill="none" stroke="#f08a24" stroke-width="7" stroke-linecap="round" stroke-linejoin="round"/>
      <text x="172" y="74" text-anchor="middle" font-size="27" fill="#fff">Clear logs</text>
    </g>
    <rect x="250" y="478" width="700" height="92" rx="18" fill="#eef3f9"/>
    <text x="600" y="535" text-anchor="middle" font-size="29" fill="#14213d">Small stages · dependency cache · protected deploys</text>
  </g>
  <path d="M300 620 C440 575 520 668 650 620 S860 575 960 620" fill="none" stroke="#1c7c54" stroke-width="12" stroke-linecap="round"/>
</svg>
